<svg width="142" height="61" viewBox="0 0 142 61" fill="none" xmlns="http://www.w3.org/2000/svg">
<path fill-rule="evenodd" clip-rule="evenodd" d="M105.319 36.0988H109.504V49.296H105.319V36.0988ZM89.3883 49.296C89.9543 47.9904 92.8204 44.1126 93.7968 42.6941C94.1775 42.1411 92.2814 39.9676 91.9121 39.3887C91.4986 38.74 89.9543 36.6107 89.7631 36.0988H94.3237L96.6552 40.1736L99.0013 36.0947L103.444 36.0988C103.188 37.3365 99.0139 41.9885 99.4973 42.7965C100.269 44.0869 103.52 48.3662 103.819 49.296L99.2567 49.2965L96.612 45.1384L94.0019 49.285L89.3883 49.296ZM74.8326 49.296C75.2393 48.2697 78.4055 43.9295 79.2434 42.6968C79.6126 42.1539 77.7544 39.9588 77.3622 39.3832C76.9805 38.8232 75.3736 36.5439 75.2074 36.0988H79.7677L82.0983 40.1741L84.4445 36.0941L88.8885 36.0988C88.6397 37.3036 84.4597 42.0386 84.9458 42.7921C85.6497 43.8838 89.0226 48.5465 89.2633 49.296L84.7008 49.2965L82.0598 45.1361L79.4505 49.2876L74.8326 49.296ZM90.7626 24.7431C80.6577 25.5019 72.3676 33.8408 73.2842 44.0552C74.1998 54.2592 83.5799 61.1821 93.7627 60.4737C103.874 59.7705 112.166 51.31 111.25 41.1387C110.333 30.9552 100.938 23.9788 90.7626 24.7431Z" fill="#0085FF"/>
<path fill-rule="evenodd" clip-rule="evenodd" d="M59.2804 11.4845L59.2773 11.7942L59.3416 11.7323L62.2473 14.8538L62.1949 14.9008C62.984 14.4859 64.1937 13.2497 65.0038 12.6273C65.9814 11.876 66.9457 11.1875 67.9915 10.5293C70.1185 9.19092 72.4094 8.02674 74.7572 7.11035C80.1357 5.01167 86.2299 3.83079 92.0166 3.87482C103.074 3.95881 113.928 7.02834 122.078 14.6289L125.392 11.2571L125.438 11.3004C116.265 3.46718 104.289 0.00472278 92.2606 4.0782e-06C85.9668 -0.00253203 79.2542 1.17785 73.3532 3.33719C70.686 4.31326 68.2419 5.47645 65.7907 6.89363C64.6143 7.57365 63.5478 8.282 62.4449 9.06918C61.3917 9.82078 60.337 10.849 59.2804 11.4845V11.4845Z" fill="#0085FF"/>
<path fill-rule="evenodd" clip-rule="evenodd" d="M65.2148 18.9118L68.3383 21.9194C69.075 21.393 69.7936 20.5815 70.5387 19.9689C71.311 19.3336 72.0815 18.7544 72.8916 18.1681C74.4826 17.0166 76.3916 15.9653 78.1787 15.1379C82.2947 13.2318 87.3421 12.087 91.8899 12.0922C96.7097 12.0974 101.232 13.1625 105.624 15.0546C107.461 15.8463 109.31 16.909 110.948 18.0486C112.678 19.2526 113.997 20.6424 115.566 21.7964L118.44 18.9118C104.327 5.21373 79.3523 5.33497 65.2148 18.9118V18.9118Z" fill="#0085FF"/>
<path fill-rule="evenodd" clip-rule="evenodd" d="M71.5254 24.9273L74.7116 28.0577C76.5966 25.8795 79.3152 24.2361 81.8975 22.9646C84.8368 21.5176 88.7431 20.6611 92.0208 20.7478C99.0278 20.9337 104.16 23.5601 108.987 28.3441L112.132 25.1727C106.944 19.9534 99.2951 17.1891 91.9566 17.0661C88.1325 17.002 83.66 17.8953 80.1515 19.4076C78.5509 20.0976 76.9694 20.889 75.5189 21.8536C74.0239 22.8478 72.9035 23.9312 71.5254 24.9273Z" fill="#0085FF"/>
<path fill-rule="evenodd" clip-rule="evenodd" d="M40.0434 39.5207L40.159 39.5394C43.4585 39.4511 43.4529 45.5455 39.0338 45.5511L40.0434 39.5207V39.5207ZM38.3188 39.6958C38.3545 39.9254 37.9222 43.0192 37.8406 43.4547C37.5638 44.9324 38.2055 46.3286 36.1213 45.2255C34.2213 44.22 35.2917 39.5205 36.4373 39.3055C36.2785 41.0097 37.6091 39.6201 38.3188 39.6958ZM38.5348 38.0959L38.5403 38.4313L36.8233 38.8619L38.5348 38.0959ZM38.5753 37.8009L38.3633 37.3588C37.9875 37.2646 37.6094 37.3557 37.3339 37.6266C36.8699 38.0829 37.0962 37.565 36.4771 37.7417C35.9148 37.9024 35.2702 38.4423 34.8119 38.8212C33.6262 39.8014 33 40.436 32.475 41.9268C31.2142 45.5079 34.0306 47.5133 37.3797 47.5209L37.0388 49.4188V50.5237C37.0388 50.9635 37.5355 51.0774 37.927 50.9733C38.7457 50.2673 38.5692 48.1463 38.8375 47.3191C39.6825 46.8201 41.1572 46.7784 42.1312 45.829C43.087 44.8972 43.826 44.9306 44.3715 43.2426C44.7388 42.1069 44.7496 40.2549 44.0149 39.2495C43.0622 37.9454 41.7622 38.183 40.4121 38.1244C40.4121 37.0165 41.1618 35.9616 41.1618 35.2394V35.1166C41.1618 34.8573 41.1501 34.9066 41.0369 34.6868C40.3896 34.5557 39.3178 35.0037 38.9238 35.5578C38.5079 36.142 38.3962 35.8821 38.7158 36.5298C38.772 36.6433 38.6407 37.6729 38.5753 37.8009L38.5753 37.8009Z" fill="#0085FF"/>
<path fill-rule="evenodd" clip-rule="evenodd" d="M116.37 44.8195L116.462 44.8297C116.981 44.9041 119.46 45.8472 119.753 46.2884C119.381 46.8403 116.649 47.9947 116.014 47.9267L116.37 44.8195ZM116.903 41.3548C116.889 41.2894 117.342 38.3519 117.393 38.1993C117.739 37.1656 119.194 37.638 119.986 38.019C121.756 38.8715 117.051 41.3543 116.903 41.3548ZM115.851 37.7923C115.713 38.0958 115.178 38.3611 114.964 38.9431C114.662 39.7628 114.848 39.9483 114.764 40.7095C114.726 41.0491 114.614 42.2795 114.419 42.4595C114.085 42.7697 113.316 42.9123 113.453 43.57C113.592 44.2349 114.323 43.8399 114.385 44.7518C114.427 45.3836 114.318 45.9767 114.318 46.6567C114.318 47.2238 114.521 48.0743 114.022 48.4525C113.627 48.7515 113.003 49.0685 113.006 49.6028C113.262 50.0233 113.766 50.1708 114.263 50.0431C114.868 50.8792 115.416 50.7545 115.797 49.8287C117.443 49.2586 121.313 48.7287 122.043 46.9421C123.033 44.5204 117.407 43.8792 116.967 43.0592C117.085 42.8784 120.619 40.6971 121.247 40.2059C122.775 39.0096 123.861 36.9232 121.437 36.0403C119.448 35.3157 117.467 35.5078 115.426 36.0821C114.565 36.3242 113.458 36.525 113.323 37.5879C113.156 38.8945 115.37 37.5021 115.851 37.7923V37.7923Z" fill="#0085FF"/>
<path fill-rule="evenodd" clip-rule="evenodd" d="M22.7603 42.197C23.3851 43.3861 24.7352 44.8345 26.1237 43.4813C26.6308 42.9871 27.1227 42.8185 27.6831 42.19C27.8911 41.957 28.9143 40.7228 29.0431 40.6412C28.7959 41.6497 27.5352 48.2907 27.7936 48.805C28.9381 48.8234 29.5134 47.4689 29.7079 46.5733C29.8296 46.0129 29.9105 45.4272 30.0231 44.8575C30.1526 44.2022 30.4095 43.896 30.4986 43.2375C30.731 41.5153 32.3573 38.13 31.4794 36.4672C29.3686 36.0881 26.6717 43.1415 24.9802 41.6291C24.0385 40.7872 23.6587 38.0272 23.6559 36.8285C23.6548 36.3849 24.3272 34.4966 23.0662 34.941C22.6219 35.0975 21.4405 35.8213 21.2711 36.2566C21.1166 36.6534 20.9908 38.3412 21.1407 38.7129C21.4402 39.4562 21.3236 39.0251 21.0077 39.6834C20.8969 39.9141 20.7966 40.6287 20.7228 40.9437C20.5658 41.6136 20.6358 42.7872 20.5226 43.625C20.3934 44.5802 20.4135 45.4128 20.2759 46.323C20.2095 46.7622 19.96 48.709 20.3533 48.9342C20.5772 49.0625 21.3709 48.8652 21.5816 48.7155C21.9329 48.4661 21.8973 47.9142 21.9309 47.5255C22.0378 46.2915 22.4407 43.3285 22.7603 42.197H22.7603Z" fill="#0085FF"/>
<path fill-rule="evenodd" clip-rule="evenodd" d="M51.4687 38.2472C54.7085 38.0379 54.2948 45.1529 50.1978 47.1268C47.3434 48.5022 48.1241 43.7239 48.2104 42.4117C48.3483 40.3233 49.0169 38.4056 51.4687 38.2472ZM49.5556 37.0508C49.5554 37.0501 49.7911 34.9068 48.4959 36.1855C47.9337 36.7405 47.6146 37.5596 47.394 38.2947C46.9873 39.6497 45.6431 41.8593 45.443 42.7507C44.9994 44.7267 46.1181 42.8874 45.8866 44.9276C45.786 45.8154 45.9173 46.8728 46.1957 47.7252C46.8611 49.7626 49.0366 49.3311 50.5506 48.6395C51.1414 48.3696 51.8741 47.7265 52.3625 47.2893C52.6349 47.0456 52.9895 46.7874 53.2348 46.5505C53.536 46.26 53.626 45.9132 53.9142 45.6219C55.2839 44.2362 55.729 42.9627 55.7202 41.0132C55.7121 39.2395 55.2705 37.6513 53.8233 36.4863C53.2366 36.0141 52.2826 35.6286 51.5959 35.9766C51.2074 36.1733 50.7803 36.1843 50.3959 36.3923C50.1232 36.5397 49.7392 36.9887 49.5556 37.0508Z" fill="#0085FF"/>
<path fill-rule="evenodd" clip-rule="evenodd" d="M15.0486 38.2472C18.2899 38.0378 17.8755 45.1523 13.7776 47.1268C10.9203 48.5036 11.7037 43.727 11.7903 42.4117C11.928 40.3233 12.5966 38.4057 15.0486 38.2472H15.0486ZM13.0664 37.1089C13.0705 36.7885 13.4402 36.4217 13.0523 36.0221C12.7282 35.6881 12.3405 35.9139 12.0712 36.1817C11.5215 36.7285 11.1905 37.5726 10.9737 38.2947C10.5824 39.5983 9.17769 41.9577 9.0057 42.7339C8.56938 44.7029 9.69646 42.9003 9.46647 44.9276C9.36582 45.8141 9.49615 46.8736 9.7764 47.7242C10.4479 49.7634 12.6503 49.3467 14.1739 48.6208C14.7691 48.3372 15.5109 47.6749 16.0078 47.2308C16.7372 46.5789 17.0307 46.0609 17.557 45.5612C18.9299 44.2576 19.3088 42.7243 19.2988 40.887C19.2893 39.1695 18.7581 37.521 17.3333 36.432C15.2052 34.8053 13.5304 37.0732 13.0664 37.1089H13.0664Z" fill="#0085FF"/>
<path fill-rule="evenodd" clip-rule="evenodd" d="M58.8425 45.0607C58.842 44.4962 59.0597 43.5229 59.1993 42.9562C59.3855 42.2009 59.3422 41.9046 59.5721 41.1126C59.7449 40.5176 59.9945 39.7907 60.1298 39.2044C60.361 38.2025 59.6804 37.9899 59.5297 37.4493C60.8491 37.771 62.4862 40.3578 62.5892 41.6286C62.7285 43.348 60.2558 44.7027 58.8425 45.0607V45.0607ZM58.5302 34.7484C58.016 34.852 56.956 35.8236 56.9345 36.3519C56.9052 37.0707 58.0129 37.5271 57.8217 38.507C57.4502 40.4084 57.2929 42.1996 56.9669 44.0765C56.8981 44.4719 56.9669 45.2579 56.8839 45.4958C56.7506 45.879 56.1609 45.8326 56.0655 46.2608C55.9552 46.756 56.591 46.7819 56.7721 47.1045C56.9914 47.4953 56.6834 48.0537 56.6171 48.4698C56.5051 49.174 56.6887 50.8461 57.8362 50.2225C58.7401 49.7312 58.8561 49.0826 58.5074 48.2759C58.408 48.0459 58.4664 47.1402 58.5086 46.8769C58.5972 46.3253 59.0425 46.4038 59.474 46.2338C60.2204 45.9396 61.0846 45.5977 61.8175 45.2831C63.4701 44.5738 64.6555 43.4265 64.6583 41.5717C64.6613 39.5053 64.2306 38.4642 62.7323 37.0034C61.9366 36.2276 59.6756 34.5179 58.5302 34.7483V34.7484Z" fill="#0085FF"/>
<path fill-rule="evenodd" clip-rule="evenodd" d="M2.30518 42.4212C2.30554 41.9207 2.89994 39.6117 3.06927 38.9979C3.247 38.3538 4.10186 36.0932 2.74874 36.0328C0.259656 37.1185 1.07853 39.5485 0.56184 41.936C0.387196 42.7433 0.686226 42.9005 0.443261 43.598C0.379598 43.7812 0.194344 45.1271 0.182086 45.3685C0.148605 46.0292 -0.258965 48.4848 0.26697 48.8631L1.29074 48.8517C1.99898 48.1409 1.58338 45.3669 2.02235 44.4178C2.42039 44.9417 2.83929 45.8103 3.24987 46.4037C3.71816 47.0805 4.23757 47.6285 4.65805 48.2732C5.79107 50.0106 8.74665 47.5533 8.84896 47.1884C8.89656 47.0184 8.46505 46.2587 8.31886 46.1257C8.08852 45.9161 7.73622 46.4078 7.47204 46.5774C6.40002 47.2656 6.18452 46.8617 5.62675 45.9096C5.27797 45.3141 4.81348 44.3502 4.55381 43.7098C3.99626 42.3338 3.95324 42.9131 5.04081 41.7944C6.04787 40.7584 7.2333 39.4839 8.04177 38.298C8.47107 37.6684 9.16476 36.9118 9.23165 36.2095C9.35812 34.8813 8.79146 34.6596 7.66224 35.224C7.37525 35.3674 6.74106 35.5608 6.55717 35.7298C6.06113 36.1849 6.58714 36.5264 6.59022 36.8875C6.59359 37.2897 5.6365 38.5502 5.34837 38.9049C4.61883 39.8027 3.14806 41.7681 2.30518 42.4212Z" fill="#0085FF"/>
<path fill-rule="evenodd" clip-rule="evenodd" d="M134.059 42.544C134.073 41.7834 134.975 38.5176 135.249 37.6354C135.382 37.2109 135.216 36.8147 135.001 36.4626C134.65 35.8884 134.314 36.3853 133.997 36.5286C132.93 37.0099 132.923 37.3735 132.785 38.407C132.699 39.051 132.249 43.6486 132.214 43.7367C131.937 44.4481 131.464 48.6459 132.02 49.0269C133.441 49.339 133.356 48.5008 133.441 47.3993C133.514 46.4411 133.666 45.5134 133.747 44.5696C133.996 44.8529 134.728 46.1449 134.976 46.5538C135.422 47.2929 135.965 47.7272 136.388 48.4194C137.408 50.0889 140.319 47.995 140.587 47.4141C140.678 47.2172 140.258 46.5368 140.101 46.3422C139.856 46.038 139.523 46.549 139.25 46.7266C138.276 47.3592 137.936 47.1078 137.406 46.1298C137.039 45.4523 136.614 44.6528 136.317 43.9463C135.709 42.5061 135.746 43.0588 136.764 42.0096C137.789 40.9529 138.912 39.7064 139.765 38.5136C140.124 38.012 140.919 36.9937 140.98 36.4529C141.117 35.228 140.595 34.7707 139.45 35.3801C139.134 35.5482 138.509 35.7189 138.335 35.8748C137.824 36.3315 138.303 36.6715 138.341 37.0289C138.384 37.4369 137.408 38.6884 137.123 39.0477C136.512 39.8187 134.769 42.0754 134.059 42.544V42.544Z" fill="#0085FF"/>
<path fill-rule="evenodd" clip-rule="evenodd" d="M131.376 47.3235L130.915 46.1762C130.097 46.3201 129.158 47.0608 128.124 47.0874C127.562 47.1017 127.181 47.3462 126.589 47.4238C126.331 47.4576 125.164 47.4545 124.813 47.4547C124.813 46.6375 124.965 45.8921 125.058 45.118C125.166 44.2228 125.391 43.8082 126.316 43.5301C126.853 43.3685 128.248 43.2966 128.884 43.227C129.587 43.15 130.56 43.9317 130.56 42.36V42.1145C130.56 40.8812 128.993 41.1607 128.276 41.2824C127.573 41.4021 127.466 41.3692 126.796 41.6083C126.249 41.8037 125.748 42.2661 125.625 42.2986C125.837 41.5901 126.585 38.0154 127.066 37.7837C127.292 37.6744 129.055 37.476 129.434 37.5082C130.193 37.5728 131.14 38.4925 131.388 37.1605C131.812 34.8704 129.23 35.0543 127.674 35.534C126.613 35.8609 124.932 37.3291 124.419 38.2904C123.818 39.416 122.649 47.5148 123.015 48.5407C123.017 48.5463 123.433 48.9883 123.602 49.3157C123.758 49.6153 124.49 49.6129 124.815 49.6082C125.272 49.6015 125.115 49.5365 125.411 49.4711C125.566 49.437 125.744 49.5446 125.999 49.5471C126.279 49.5499 126.945 49.314 127.226 49.2127C128.135 48.8854 130.891 48.0776 131.376 47.3235V47.3235Z" fill="#0085FF"/>
<path fill-rule="evenodd" clip-rule="evenodd" d="M67.4191 37.4268L66.7145 45.0607L66.6773 46.8448L66.9687 49.2918C67.435 49.5051 68.0848 49.2162 68.3248 48.7871C68.4793 48.5103 68.3081 47.4609 68.3422 47.0285C68.432 45.8967 68.7335 44.7425 68.7932 43.6061C68.8337 42.8382 69.2661 41.2595 69.4273 40.3604C69.7472 38.5744 70.0069 38.8538 69.2004 37.2303L69.2077 37.1488L71.535 37.3525L71.5737 37.229L71.5874 36.4672V36.3445C71.5874 35.0211 71.4839 35.4727 70.6946 35.2549C70.2333 35.1277 69.4194 35.0554 68.9009 35.0554H68.8385C67.6111 35.0554 64.6734 35.0201 64.4271 36.4909C64.2574 37.503 63.7645 38.3811 65.1214 37.9709C65.4401 37.8744 67.2451 37.3784 67.4191 37.4268H67.4191Z" fill="#0085FF"/>
<path d="M28.5527 32.3152C28.5527 31.8377 28.6885 31.4654 28.9589 31.1997C29.23 30.9332 29.6068 30.8008 30.0905 30.8008C30.5861 30.8008 30.9683 30.9313 31.2366 31.1927C31.5042 31.4537 31.6385 31.8205 31.6385 32.2916C31.6385 32.6336 31.5799 32.9142 31.4627 33.1329C31.3451 33.3516 31.1765 33.5218 30.9551 33.6439C30.7328 33.7657 30.4579 33.8263 30.1271 33.8263C29.7912 33.8263 29.5136 33.7741 29.2932 33.6692C29.0734 33.5636 28.8951 33.3971 28.7578 33.1694C28.621 32.942 28.5527 32.6574 28.5527 32.3152H28.5527ZM29.4733 32.3194C29.4733 32.6152 29.5285 32.8269 29.6405 32.9564C29.752 33.0852 29.9046 33.1501 30.0965 33.1501C30.2943 33.1501 30.4476 33.0864 30.5555 32.9604C30.6636 32.8339 30.7187 32.6067 30.7187 32.2799C30.7187 32.0035 30.6615 31.8029 30.5484 31.6754C30.4357 31.5489 30.2824 31.4853 30.0879 31.4853C29.9033 31.4853 29.7541 31.5494 29.6417 31.6786C29.5295 31.8074 29.4733 32.0219 29.4733 32.3194ZM34.9858 33.7769H34.068V31.5693H33.0566V33.7769H32.1375V30.8502H34.9858V33.7769ZM35.5973 30.8502H38.0631V31.4751H36.5195V31.9406H37.9512V32.5371H36.5195V33.114H38.1083V33.7769H35.5973V30.8502ZM38.5997 30.8502H40.1291C40.4622 30.8502 40.7118 30.9283 40.8772 31.0839C41.0434 31.2392 41.1263 31.4616 41.1263 31.7482C41.1263 32.044 41.0363 32.2747 40.855 32.4412C40.6744 32.6077 40.3984 32.6907 40.0271 32.6907H39.5239V33.7769H38.5997V30.8502L38.5997 30.8502ZM39.5239 32.0977H39.7492C39.9268 32.0977 40.0509 32.0681 40.123 32.0072C40.1946 31.9466 40.2305 31.8685 40.2305 31.7751C40.2305 31.6829 40.1994 31.6046 40.1372 31.541C40.0755 31.4771 39.9579 31.445 39.7861 31.445H39.5239V32.0977V32.0977ZM43.44 33.2937H42.3919L42.2475 33.7769H41.3074L42.4263 30.8502H43.4296L44.5498 33.7769H43.5864L43.44 33.2937ZM43.2473 32.6604L42.918 31.6085L42.5904 32.6604H43.2473ZM44.635 30.8502H47.4317V31.5735H46.4932V33.7769H45.5733V31.5735H44.635V30.8502ZM47.7325 32.3152C47.7325 31.8377 47.8682 31.4654 48.1384 31.1997C48.4097 30.9332 48.7866 30.8008 49.2702 30.8008C49.7659 30.8008 50.1481 30.9313 50.4163 31.1927C50.684 31.4537 50.8182 31.8205 50.8182 32.2916C50.8182 32.6336 50.7593 32.9142 50.6424 33.1329C50.5249 33.3516 50.3559 33.5218 50.1349 33.6439C49.9125 33.7657 49.6376 33.8263 49.3068 33.8263C48.9709 33.8263 48.6933 33.7741 48.473 33.6692C48.2532 33.5636 48.0749 33.3971 47.9376 33.1694C47.8007 32.942 47.7325 32.6574 47.7325 32.3152V32.3152ZM48.6531 32.3194C48.6531 32.6152 48.7084 32.8269 48.8202 32.9564C48.9317 33.0852 49.0843 33.1501 49.2762 33.1501C49.4737 33.1501 49.6273 33.0864 49.7352 32.9604C49.8433 32.8339 49.8984 32.6067 49.8984 32.2799C49.8984 32.0035 49.8415 31.8029 49.7282 31.6754C49.6154 31.5489 49.4621 31.4853 49.2679 31.4853C49.0828 31.4853 48.9338 31.5494 48.8215 31.6786C48.7092 31.8074 48.6531 32.0219 48.6531 32.3194ZM51.3099 30.8502H52.8393C53.1721 30.8502 53.4217 30.9283 53.5874 31.0839C53.7533 31.2392 53.8365 31.4616 53.8365 31.7482C53.8365 32.044 53.7462 32.2747 53.5651 32.4412C53.3845 32.6077 53.1087 32.6907 52.7374 32.6907H52.2341V33.7769H51.3099V30.8502ZM52.2341 32.0977H52.4594C52.6367 32.0977 52.7609 32.0681 52.8329 32.0072C52.9048 31.9466 52.9405 31.8685 52.9405 31.7751C52.9405 31.6829 52.9093 31.6046 52.8471 31.541C52.7854 31.4771 52.6678 31.445 52.496 31.445H52.2341V32.0977V32.0977ZM57.6881 32.5809L58.4942 32.821C58.4405 33.0429 58.3551 33.2283 58.2385 33.3777C58.1219 33.5268 57.9772 33.6391 57.8045 33.7147C57.6317 33.7913 57.412 33.8285 57.1459 33.8285C56.8219 33.8285 56.5571 33.7823 56.3525 33.6901C56.1474 33.5974 55.9701 33.4346 55.8209 33.2015C55.6724 32.9689 55.5973 32.6706 55.5973 32.3077C55.5973 31.8233 55.7286 31.4505 55.9908 31.191C56.2526 30.9308 56.6239 30.8008 57.1026 30.8008C57.4782 30.8008 57.7724 30.8748 57.9876 31.024C58.2026 31.1733 58.3619 31.4022 58.4658 31.7107L57.653 31.8887C57.6249 31.7997 57.5951 31.7338 57.564 31.6926C57.5123 31.6235 57.4491 31.5708 57.3751 31.533C57.3002 31.4955 57.2172 31.4771 57.1246 31.4771C56.9172 31.4771 56.7569 31.5596 56.6459 31.7246C56.5619 31.8469 56.5197 32.0393 56.5197 32.3017C56.5197 32.6266 56.5705 32.8485 56.6699 32.9693C56.7705 33.0899 56.9114 33.1501 57.0923 33.1501C57.2686 33.1501 57.4016 33.1013 57.4916 33.0039C57.5819 32.9072 57.6469 32.7663 57.6881 32.5809H57.6881ZM58.9431 30.8502H60.6659C60.9533 30.8502 61.1735 30.9201 61.3268 31.0603C61.4806 31.1997 61.5575 31.3727 61.5575 31.5784C61.5575 31.752 61.5029 31.9001 61.3933 32.0243C61.3198 32.1066 61.213 32.1722 61.0726 32.2197C61.2859 32.2702 61.4434 32.3574 61.5443 32.4802C61.6452 32.6035 61.6958 32.7583 61.6958 32.9443C61.6958 33.0964 61.6594 33.2326 61.588 33.3536C61.516 33.4748 61.4183 33.5706 61.2935 33.6414C61.2165 33.6849 61.1 33.7169 60.9442 33.7366C60.7368 33.7634 60.5994 33.7769 60.5317 33.7769H58.9431V30.8502V30.8502ZM59.8715 31.9985H60.2716C60.4151 31.9985 60.515 31.9739 60.5716 31.9252C60.6278 31.8767 60.6556 31.8062 60.6556 31.7147C60.6556 31.6299 60.6278 31.5633 60.5716 31.5156C60.515 31.4668 60.4173 31.443 60.2777 31.443H59.8715V31.9985ZM59.8715 33.1478H60.341C60.4995 33.1478 60.6113 33.121 60.6758 33.0653C60.7408 33.0101 60.7735 32.9358 60.7735 32.8428C60.7735 32.7561 60.7416 32.6865 60.6773 32.6341C60.6126 32.5816 60.5005 32.5553 60.3387 32.5553H59.8715V33.1478ZM64.8095 33.7769V30.8502H63.276C62.9915 30.8502 62.774 30.8743 62.624 30.9226C62.4735 30.9703 62.3523 31.0588 62.2603 31.1893C62.1677 31.3185 62.1222 31.4766 62.1222 31.6625C62.1222 31.825 62.1574 31.9652 62.228 32.0828C62.298 32.2006 62.3954 32.296 62.5178 32.3699C62.5972 32.4164 62.7047 32.4551 62.841 32.4847C62.7315 32.521 62.6518 32.557 62.6015 32.5933C62.5679 32.6169 62.5188 32.6684 62.4543 32.7466C62.3896 32.8254 62.3468 32.8853 62.3255 32.9286L61.8802 33.7769H62.9202L63.4118 32.8821C63.474 32.767 63.5297 32.6915 63.5788 32.6569C63.645 32.6119 63.7204 32.589 63.8043 32.589H63.8853V33.7769H64.8095ZM63.8853 32.036H63.4973C63.4556 32.036 63.3747 32.0232 63.2537 31.9963C63.1931 31.9841 63.143 31.9535 63.1038 31.9043C63.0661 31.8553 63.0464 31.7987 63.0464 31.7348C63.0464 31.6401 63.077 31.5678 63.1377 31.5174C63.1991 31.4664 63.3132 31.4408 63.4811 31.4408H63.8853V32.036V32.036ZM67.2885 32.1859C67.6451 32.2804 67.8244 32.5011 67.8244 32.8485C67.8244 33.1348 67.7126 33.3692 67.488 33.5519C67.264 33.7351 66.9478 33.8263 66.5389 33.8263C65.8398 33.8263 65.4058 33.5385 65.2364 32.9626L66.1059 32.8983C66.1545 33.1023 66.293 33.2037 66.5219 33.2037C66.6496 33.2037 66.746 33.1724 66.812 33.1098C66.8775 33.0476 66.9102 32.9604 66.9102 32.8485C66.9102 32.7402 66.8687 32.6529 66.7862 32.5859C66.7035 32.5192 66.5907 32.4847 66.4473 32.4847H66.1974V31.9622H66.3944C66.5126 31.9622 66.6043 31.9316 66.6719 31.8715C66.7384 31.8114 66.7723 31.7263 66.7723 31.6187C66.7723 31.4607 66.6709 31.3809 66.4696 31.3809C66.2606 31.3809 66.1398 31.4723 66.1059 31.655L65.2831 31.5608C65.4177 31.0543 65.8181 30.8008 66.486 30.8008C66.8553 30.8008 67.1453 30.8706 67.3555 31.0116C67.5649 31.153 67.6701 31.3431 67.6701 31.5807C67.6701 31.8683 67.5426 32.0699 67.2885 32.1859ZM71.1336 30.8502V33.7769H70.2678V32.17L69.1522 33.7769H68.2852V30.8502H69.1522V32.469L70.2744 30.8502H71.1336H71.1336Z" fill="#0085FF"/>
</svg>
